<svg width="2832" height="961" viewBox="0 0 2832 961" fill="none" xmlns="http://www.w3.org/2000/svg">
<path d="M2831.72 501.351C2831.72 623.622 2753.49 706.136 2643.23 706.136C2532.96 706.136 2454.73 623.622 2454.73 501.351C2454.73 379.081 2532.96 296.567 2643.23 296.567C2753.49 296.567 2831.72 379.081 2831.72 501.351ZM2544.88 501.351C2544.88 581.615 2582.88 630.373 2643.23 630.373C2703.57 630.373 2741.57 581.615 2741.57 501.351C2741.57 421.088 2703.57 372.33 2643.23 372.33C2582.88 372.33 2544.88 421.088 2544.88 501.351Z" fill="black"/>
<path d="M2328.01 697.885V642.376C2306.4 678.382 2254.25 706.136 2184.21 706.136C2045.63 706.136 1942.82 593.617 1942.82 430.84C1942.82 267.313 2046.38 151.043 2190.17 151.043C2299.7 151.043 2373.46 210.303 2406.24 305.569L2315.34 336.324C2299.7 272.564 2254.99 235.808 2190.92 235.808C2100.77 235.808 2038.18 313.071 2038.18 429.34C2038.18 545.609 2100.77 623.622 2192.41 623.622C2269.89 623.622 2320.56 568.113 2323.54 491.6H2182.72V407.586H2415.18V697.885H2328.01Z" fill="black"/>
<path d="M1745.46 598.865V380.578H1691.07V304.066H1745.46V188.546H1833.37V304.066H1915.33V380.578H1833.37V584.613C1833.37 619.868 1853.49 623.619 1885.53 623.619C1900.43 623.619 1908.63 622.869 1922.04 621.369V697.131C1905.65 700.132 1883.29 702.382 1860.2 702.382C1785.69 702.382 1745.46 679.128 1745.46 598.865Z" fill="black"/>
<path d="M1569.53 251.575V159.309H1661.91V251.575H1569.53ZM1660.42 304.084V697.9H1571.02V304.084H1660.42Z" fill="black"/>
<path d="M1127.57 697.9V159.309H1339.91C1454.65 159.309 1515.74 209.568 1515.74 301.083C1515.74 367.844 1477 402.35 1439.75 417.353C1495.63 435.356 1532.88 481.863 1532.88 547.875C1532.88 642.39 1463.59 697.9 1353.32 697.9H1127.57ZM1219.21 382.097H1330.97C1392.07 382.097 1425.59 358.093 1425.59 310.835C1425.59 263.577 1392.07 240.323 1330.97 240.323H1219.21V382.097ZM1219.21 463.11V616.886H1348.11C1408.46 616.886 1441.24 585.381 1441.24 539.623C1441.24 494.616 1408.46 463.11 1348.11 463.11H1219.21Z" fill="black"/>
<path d="M407.994 960.764C407.994 960.764 815.288 767.583 815.288 545.684C815.288 373.589 815.288 261.797 815.288 89.7028C556.723 -28.7778 259.297 -28.9006 0.669922 89.4444C0.904449 261.625 0.694917 373.503 0.694917 545.684C0.694917 767.583 407.994 960.764 407.994 960.764Z" fill="#1647DB"/>
<path fill-rule="evenodd" clip-rule="evenodd" d="M323.645 159.27H376.199V211.392H428.754V159.27H481.308V215.747C540.946 228.794 576.784 270.364 576.784 329.648C576.784 371.314 551.738 408.69 508.067 421.557C557.518 434.424 586.417 474.864 586.417 519.593C586.417 583.61 548.083 626.726 481.308 640.806V697.952H428.754V645.815H376.199V697.952H323.645V645.815H271.091V211.392H323.645V159.27ZM492.654 333.937C492.654 299.625 466.966 279.405 422.653 279.405H353.294V388.47H427.148C468.25 388.47 492.654 368.25 492.654 333.937ZM502.287 515.304C502.287 474.864 477.241 454.644 427.791 454.644H353.294V574.739H423.295C472.103 574.739 502.287 552.068 502.287 515.304Z" fill="white"/>
</svg>
