<svg width="875" height="200" viewBox="0 0 875 200" fill="none" xmlns="http://www.w3.org/2000/svg">
<path fill-rule="evenodd" clip-rule="evenodd" d="M66.5608 133.332H99.8412V99.999H66.5608V66.666H133.122V166.665H33.2804V133.332H0V0H133.122V33.333H33.2804V66.666V133.332H66.5608Z" fill="#7180F5"/>
<path d="M166.401 33.3311H133.12V66.6641H166.401V33.3311Z" fill="#FF8099"/>
<path d="M33.2804 166.667H0V200H33.2804V166.667Z" fill="#1E1C2D"/>
<path d="M334.654 86.1806H352.745L352.683 85.6254C351.235 72.5739 346.52 62.3572 337.985 55.4125C329.458 48.4746 317.189 44.8606 300.748 44.8606C281.784 44.8606 268.019 51.022 259 61.2089C249.991 71.3859 245.775 85.5175 245.775 101.361C245.775 117.277 249.748 131.405 258.273 141.562C266.81 151.734 279.86 157.861 297.873 157.861C317.443 157.861 330.96 148.973 336.672 134.915V155.141H352.527V100.861H290.664V114.021H335.482C334.4 121.821 331.712 129.039 326.376 134.346C320.92 139.771 312.632 143.261 300.269 143.261C287.105 143.261 278.086 139.531 272.34 132.504C266.577 125.455 264.027 114.994 264.027 101.361C264.027 87.5716 266.735 77.1104 272.557 70.1004C278.364 63.1094 287.346 59.4606 300.11 59.4606C311.315 59.4606 319.373 61.6909 324.901 66.0533C330.417 70.407 333.491 76.9469 334.599 85.7432L334.654 86.1806Z" fill="#1E1C2D"/>
<path fill-rule="evenodd" clip-rule="evenodd" d="M412.215 105.188L392.247 108.548C383.245 110.077 377.054 112.948 373.117 117.117C369.17 121.297 367.549 126.715 367.549 133.201C367.549 140.684 370.152 146.708 374.867 150.856C379.575 154.997 386.333 157.221 394.566 157.221C410.29 157.221 419.124 148.635 423.002 139.321C423.082 144.593 423.396 149.352 423.942 154.692L423.988 155.141H439.519L439.473 154.598C438.836 147.093 438.676 142.307 438.676 136.401V96.7206C438.676 89.2267 435.905 82.8751 430.301 78.4094C424.712 73.9554 416.36 71.4206 405.269 71.4206C393.856 71.4206 384.906 74.117 378.779 79.0097C372.639 83.9133 369.387 90.9818 369.306 99.5959L369.301 100.101H386.241L386.278 99.6402C386.669 94.6995 388.382 91.0062 391.539 88.5345C394.711 86.0508 399.415 84.7406 405.908 84.7406C412.736 84.7406 416.991 85.9767 419.535 88.0113C422.051 90.0237 422.981 92.8909 422.981 96.4006C422.981 99.0781 422.151 100.921 420.454 102.269C418.721 103.647 416.03 104.551 412.215 105.188ZM409.376 117.048C413.876 115.996 418.751 114.786 422.981 111.926V115.761C422.981 123.674 420.808 130.711 416.607 135.761C412.416 140.798 406.171 143.901 397.921 143.901C393.844 143.901 390.494 142.879 388.173 140.974C385.866 139.079 384.522 136.268 384.522 132.561C384.522 128.991 385.562 126.334 387.758 124.287C389.978 122.216 393.432 120.721 398.353 119.608L409.376 117.048Z" fill="#1E1C2D"/>
<path d="M528.762 74.1406H511.788V108.401C511.788 120.268 509.52 129.033 505.546 134.817C501.59 140.576 495.916 143.421 488.964 143.421C483.659 143.421 479.142 142.426 475.945 139.454C472.754 136.488 470.773 131.452 470.773 123.121V74.1406H453.8V124.561C453.8 135.094 455.925 143.396 460.81 149.067C465.709 154.753 473.299 157.701 484.012 157.701C491.619 157.701 497.639 155.591 502.347 151.978C506.44 148.837 509.517 144.579 511.788 139.639V155.141H528.762V74.1406Z" fill="#1E1C2D"/>
<path d="M604.922 155.141H621.896V104.721C621.896 94.1947 619.933 85.8929 615.21 80.2204C610.471 74.5283 603.036 71.5806 592.322 71.5806C584.554 71.5806 578.414 73.7713 573.607 77.4847C569.409 80.7269 566.252 85.1109 563.907 90.156V74.1406H546.934V155.141H563.907V120.881C563.907 108.2 566.061 99.4469 570.083 93.8735C574.08 88.3344 579.98 85.8606 587.69 85.8606C592.669 85.8606 596.943 86.8523 599.981 89.8187C603.019 92.7845 604.922 97.8245 604.922 106.161V155.141Z" fill="#1E1C2D"/>
<path d="M630.784 75.5427V87.4606H645.96V131.121C645.96 139.143 647.155 145.194 650.907 149.222C654.666 153.257 660.875 155.141 670.581 155.141H686.895V141.341H662.933V87.4606H688.493V74.1406H662.933V56.0606H654.122L646.122 74.1689L630.784 75.5427Z" fill="#1E1C2D"/>
<path d="M701.615 42.1406V155.141H718.588V42.1406H701.615Z" fill="#1E1C2D"/>
<path fill-rule="evenodd" clip-rule="evenodd" d="M812.165 129.981H796.518L796.418 130.351C795.323 134.424 793.221 138.036 789.638 140.636C786.052 143.238 780.932 144.861 773.737 144.861C766.934 144.861 761.086 143.355 756.78 139.431C752.553 135.579 749.731 129.321 749.031 119.621H811.865L811.931 119.197C812.256 117.078 812.256 115.125 812.256 113.056V113.041C812.256 101.509 808.955 91.1425 802.408 83.6513C795.853 76.1508 786.085 71.5806 773.258 71.5806C759.475 71.5806 749.226 76.3891 742.429 84.1919C735.642 91.9846 732.342 102.712 732.342 114.481C732.342 126.398 735.356 137.207 742.006 145.044C748.667 152.895 758.921 157.701 773.258 157.701C787.411 157.701 796.764 153.752 802.765 148.353C808.761 142.958 811.361 136.16 812.092 130.545L812.165 129.981ZM748.497 119.121C748.507 119.281 748.518 119.441 748.529 119.6C748.526 119.552 748.522 119.505 748.519 119.458C748.511 119.346 748.504 119.233 748.497 119.121ZM811.576 130.639C811.566 130.714 811.555 130.79 811.544 130.866C811.554 130.797 811.564 130.729 811.573 130.661L811.576 130.639ZM789.599 89.9751C793.271 93.634 795.43 99.2058 795.894 106.941H749.215C750.219 98.4465 752.913 92.8725 756.93 89.3991C761.037 85.8484 766.61 84.4206 773.417 84.4206C780.443 84.4206 785.848 86.2378 789.599 89.9751Z" fill="#1E1C2D"/>
<path d="M816.75 75.5427V87.4606H831.926V131.121C831.926 139.143 833.121 145.194 836.873 149.222C840.632 153.257 846.841 155.141 856.547 155.141H872.861V141.341H848.899V87.4606H874.459V74.1406H848.899V56.0606H840.088L832.088 74.1689L816.75 75.5427Z" fill="#1E1C2D"/>
</svg>
