<svg width="698" height="216" viewBox="0 0 698 216" fill="none" xmlns="http://www.w3.org/2000/svg">
<g clip-path="url(#clip0_117_44)">
<path d="M180.649 146.616L196.237 139.155C196.237 154.259 205.662 163.903 221.612 163.903C234.481 163.903 243.725 157.898 243.725 148.072C243.725 122.232 183.006 142.431 183.006 102.033C183.006 83.4721 200.225 71.644 220.706 71.644C243.181 71.644 257.319 84.7459 259.313 100.577L244.269 107.128C244.269 94.7543 235.387 86.0197 220.706 86.0197C208.381 86.0197 199.681 91.4788 199.681 100.941C199.681 125.689 260.581 106.4 260.581 147.344C260.581 166.815 243.725 178.097 221.612 178.097C200.043 178.097 183.368 166.633 180.649 146.616Z" fill="#1A1A1A"/>
<path d="M264.025 140.248C264.025 118.047 279.251 101.67 300.094 101.67C321.12 101.67 334.351 116.773 334.351 138.792C334.351 140.793 334.17 142.613 333.989 145.161H280.701C282.332 158.809 290.488 164.814 301.363 164.814C311.513 164.814 317.857 160.81 321.845 151.894L333.264 162.084C326.557 173.002 314.232 178.098 301.001 178.098C278.344 178.098 264.025 162.448 264.025 140.248ZM317.313 133.515C317.313 122.232 310.607 115.135 299.732 115.135C290.307 115.135 282.694 121.141 280.882 133.515H317.313Z" fill="#1A1A1A"/>
<path d="M341.963 104.035H357.732V125.143L361.539 109.13C365.345 104.944 370.964 101.487 380.389 101.487C397.789 101.487 407.214 112.769 407.214 131.876V175.913H391.445V135.334C391.445 122.414 386.551 116.409 376.039 116.409C364.62 116.409 357.914 124.415 357.914 137.699V176.095H342.145V104.035H341.963Z" fill="#1A1A1A"/>
<path d="M424.252 154.987V117.865H411.383V104.217H424.252V88.9314L440.021 77.1033V104.217H460.502V117.865H440.021V152.803C440.021 161.72 443.464 163.54 450.714 163.54C452.889 163.54 457.058 162.994 459.414 162.448V176.46C457.058 177.37 450.714 177.915 448.358 177.915C432.77 177.915 424.252 171.364 424.252 154.987Z" fill="#1A1A1A"/>
<path d="M463.221 139.883C463.221 117.319 479.896 101.487 502.009 101.487C524.121 101.487 540.796 117.319 540.796 139.883C540.796 162.265 523.94 178.097 502.009 178.097C480.077 178.097 463.221 162.447 463.221 139.883ZM524.484 139.883C524.484 125.325 515.059 116.227 502.19 116.227C489.321 116.227 479.715 125.325 479.715 139.883C479.715 154.259 489.321 163.357 502.19 163.357C515.059 163.539 524.484 154.441 524.484 139.883Z" fill="#1A1A1A"/>
<path d="M547.684 104.035H563.453V128.055L567.259 109.676C569.978 106.583 575.597 102.397 583.753 102.397C586.291 102.397 587.922 102.579 590.097 103.307V119.139C587.378 118.229 585.022 117.865 581.941 117.865C570.884 117.865 563.272 125.326 563.272 141.339V176.096H547.503V104.035H547.684Z" fill="#1A1A1A"/>
<path d="M590.278 140.066C590.278 118.411 604.96 101.67 626.529 101.67C637.585 101.67 645.923 106.037 651.541 112.588V104.217H667.31V144.433L678.185 176.278H661.329L652.81 149.528L651.36 167.543C646.104 173.912 637.947 178.28 626.347 178.28C604.96 178.098 590.278 161.72 590.278 140.066ZM652.085 140.066C652.085 125.872 642.479 116.045 629.429 116.045C615.835 116.045 606.772 126.236 606.772 140.066C606.772 153.713 616.016 163.54 629.429 163.54C642.297 163.722 652.085 154.077 652.085 140.066Z" fill="#1A1A1A"/>
<path d="M675.647 112.224C675.647 105.855 680.904 100.577 687.248 100.577C693.591 100.577 698.848 105.855 698.848 112.224C698.848 118.593 693.591 123.87 687.248 123.87C680.904 123.87 675.647 118.775 675.647 112.224ZM695.585 112.224C695.585 107.674 691.779 103.853 687.248 103.853C682.716 103.853 678.91 107.674 678.91 112.224C678.91 116.773 682.716 120.594 687.248 120.594C691.96 120.594 695.585 116.955 695.585 112.224ZM683.079 106.764H688.154C690.691 106.764 692.141 108.22 692.141 110.404C692.141 111.86 691.598 112.769 690.51 113.497L692.504 117.683H689.06L687.61 114.043H686.16V117.683H683.079V106.764ZM687.61 111.678C688.516 111.678 689.06 111.314 689.06 110.404C689.06 109.494 688.516 108.948 687.61 108.948H686.16V111.678H687.61Z" fill="#1A1A1A"/>
<path d="M120.532 104.27C117.995 92.0777 110.02 83.5251 106.395 80.0676C106.214 79.5217 106.032 78.9758 105.851 78.4299L124.52 64.964C124.52 59.6868 123.432 54.5916 121.62 49.6784L88.6321 73.5167L90.2634 78.066C91.5322 81.8874 92.8009 85.8907 92.8009 85.8907L93.5259 87.8924L95.1572 89.1662C95.7009 89.5301 108.026 99.5386 106.576 114.46L98.9635 119.919C86.6384 128.836 84.4633 134.477 81.5633 143.576C80.8383 145.759 80.1133 148.307 79.0258 151.218C74.6758 162.319 69.4195 165.776 61.2631 169.78L55.1006 172.873L74.857 215.818H92.0759V201.988H84.4633L73.7695 178.696C81.3821 174.329 87.9071 168.324 92.6197 155.768C93.8884 152.31 94.7947 149.581 95.5197 147.215C97.3322 141.21 98.2385 138.298 103.857 133.749L104.582 147.397L97.876 152.31L106.576 163.411L119.626 154.312L119.082 143.03L125.245 150.854L138.295 141.756L136.664 113.732L120.532 104.27ZM118.901 138.116L118.176 123.559L122.707 120.283L123.614 135.023L118.901 138.116Z" fill="#1A1A1A"/>
<path d="M148.264 21.2913L139.201 10.373C139.201 10.373 134.126 14.0125 126.151 20.0175C108.026 2.54827 80.657 -4.36664 55.463 2.73025L59.813 15.8322C79.207 10.373 100.232 15.2863 114.551 28.3882C105.851 34.7572 95.5196 42.218 84.8258 50.0428C84.4633 49.8608 84.1008 49.6789 83.7383 49.3149C81.5632 48.0411 78.3007 45.8575 75.7632 43.8558C69.9631 39.1245 63.2568 36.5769 56.913 36.7589C48.7567 36.9409 41.1441 40.7623 36.4316 46.7673C33.8941 50.0428 32.444 53.5003 31.1753 56.5938C30.8128 57.6856 30.269 58.5955 29.9065 59.6873C28.4565 62.7808 26.8252 64.7825 25.194 65.5104L30.6315 78.2484C36.0691 76.2467 40.4191 71.8794 43.5004 65.1464C44.0441 63.8726 44.5879 62.7808 44.9504 61.507C46.0379 58.9594 46.9442 56.5938 48.3942 54.7741C50.388 52.2265 53.8317 50.4067 57.2755 50.4067H57.4568C61.0818 50.4067 64.5256 52.7724 66.1568 54.0462C68.3319 55.6839 70.5069 57.3217 72.6819 58.5955C59.4505 68.2399 45.8567 78.0664 34.2566 86.619L34.0753 86.801L34.6191 88.2568L39.3316 99.357L64.3443 105.362L64.5256 108.82L39.5129 127.017C37.7003 128.29 36.0691 129.928 34.8003 131.566C31.1753 131.202 27.369 131.93 24.1065 133.386C18.4877 135.933 14.5001 140.847 13.0501 146.488L11.9626 151.037C11.4189 153.585 8.88133 155.404 6.16256 155.404H0V169.234H6.16256C15.7689 169.234 24.2877 162.865 26.2815 154.13L27.369 149.581C27.7315 148.125 28.6378 146.852 30.0878 146.124C30.4503 153.948 34.9816 160.863 42.0504 164.867C41.8691 165.413 41.6879 165.777 41.3254 166.141C40.2379 167.232 38.2441 167.96 35.8878 168.142L27.7315 168.324L34.6191 215.455H53.4692V201.625H47.4879L44.4067 180.516C47.6692 179.424 50.388 177.605 52.563 175.239C56.0068 171.418 57.638 166.323 56.913 161.045C56.5505 157.952 54.3755 155.404 51.4755 153.948L50.388 153.403C46.9442 151.765 44.7692 148.671 44.7692 145.032C44.7692 144.85 44.7692 144.486 44.7692 144.304C44.9504 141.938 46.4004 139.573 48.7567 137.935L79.7507 115.371L78.6632 94.6258L55.1005 88.9847C77.7569 72.7892 104.401 53.3183 123.432 39.4885C125.064 42.0361 126.332 44.5837 127.239 47.3132V47.4952C133.039 62.0529 131.589 78.6123 122.889 92.2602L135.395 99.357C149.17 78.2484 148.808 51.4986 135.032 30.9358C143.189 24.9308 148.264 21.2913 148.264 21.2913Z" fill="#1A1A1A"/>
</g>
<defs>
<clipPath id="clip0_117_44">
<rect width="698" height="216" fill="white"/>
</clipPath>
</defs>
</svg>
